PathFileType	4	(X/Y/Z)	C:\Git\research_data\Projects\torsion_deformities_healthy_kinematics\simulations\TD01\pre\dynamic_12_l\marker_experimental.trc
DataRate	CameraRate	NumFrames	NumMarkers	Units	OrigDataRate	OrigDataStartFrame	OrigNumFrames
200	200	4	30	mm	200	533	609
Frame#	Time	C7			T10			CLAV			STRN			RBAK			LASI			RASI			SACR			RT1			RT2			RT3			RKNE			RS1			RS2			RS3			RANK			RHEE			RTOE			LT1			LT2			LT3			LKNE			LS1			LS2			LS3			LANK			LHEE			LTOE			RHJC			LHJC		
		X1	Y1	Z1	X2	Y2	Z2	X3	Y3	Z3	X4	Y4	Z4	X5	Y5	Z5	X6	Y6	Z6	X7	Y7	Z7	X8	Y8	Z8	X9	Y9	Z9	X10	Y10	Z10	X11	Y11	Z11	X12	Y12	Z12	X13	Y13	Z13	X14	Y14	Z14	X15	Y15	Z15	X16	Y16	Z16	X17	Y17	Z17	X18	Y18	Z18	X19	Y19	Z19	X20	Y20	Z20	X21	Y21	Z21	X22	Y22	Z22	X23	Y23	Z23	X24	Y24	Z24	X25	Y25	Z25	X26	Y26	Z26	X27	Y27	Z27	X28	Y28	Z28	X29	Y29	Z29	X30	Y30	Z30	

533	2.660000	2139.782471	1252.938843	234.145370	2097.868408	1069.171753	232.104553	2267.264893	1207.237061	229.773468	2306.266113	1073.479858	222.873184	2112.458496	1182.306396	330.418091	2238.264648	860.969116	127.353249	2240.840820	873.446838	328.906586	2077.190430	905.664001	232.006256	2229.127686	669.305847	360.221649	2197.401855	610.725586	359.183716	2247.769531	608.395447	342.617096	2235.211426	473.600708	316.072632	2182.420898	344.743958	341.696167	2157.218994	284.245331	332.446045	2206.977295	284.587097	326.204071	2153.541504	90.366570	293.717651	2103.059082	82.207512	244.708099	2289.711914	63.240154	263.543488	2229.621094	678.711853	73.381691	2227.581299	611.886780	73.974640	2275.296387	630.005493	78.436371	2290.942871	466.845276	79.538261	2166.974609	386.841644	74.401581	2114.866943	347.930511	90.376572	2159.327637	322.966095	90.896439	1992.791138	226.901978	132.873276	1964.122314	251.212677	177.493500	2066.740234	102.423279	155.384415	2175.525745	813.765879	306.349719	2173.639233	804.628529	158.753599	
534	2.665000	2146.084717	1253.497314	234.265488	2104.071289	1069.742676	232.297348	2273.549316	1207.782593	229.808228	2312.423828	1074.015503	222.988358	2118.824707	1182.959595	330.650330	2244.649902	861.775513	127.774910	2246.681641	873.880737	329.327728	2083.272461	906.291687	231.995117	2233.497803	669.219910	360.604828	2201.103760	610.999329	359.379730	2251.435547	608.101135	342.930725	2237.207031	473.417297	316.340210	2183.561768	344.940582	341.802734	2158.052002	284.570129	332.398254	2207.838623	284.648315	326.379730	2153.687012	90.580826	293.673309	2103.222412	82.628845	244.629211	2289.830078	63.188763	263.591400	2237.564941	680.541931	73.159218	2236.360596	613.703186	73.587463	2283.815918	632.426147	78.307755	2301.815674	469.521606	79.361450	2178.858643	387.479980	74.647743	2127.523438	347.541229	90.754074	2172.414307	323.385590	90.921074	2008.062866	223.818390	133.323196	1978.893188	247.215714	178.186707	2085.737793	101.701813	155.029236	2181.420129	814.256706	306.489068	2179.932279	805.392006	158.891207	
535	2.670000	2152.390137	1254.005493	234.380539	2110.267090	1070.265991	232.472595	2279.834717	1208.271118	229.843948	2318.583984	1074.492065	223.114029	2125.187988	1183.563110	330.878723	2251.021240	862.515869	128.180267	2252.500732	874.247192	329.733124	2089.338623	906.856873	231.955933	2237.845459	669.060608	360.949554	2204.736084	611.210754	359.551910	2255.036133	607.710022	343.242401	2239.173584	473.223236	316.604340	2184.515869	345.138428	341.888916	2158.701660	284.906128	332.252533	2208.533691	284.706573	326.601593	2153.828857	90.809166	293.598755	2103.389160	83.067482	244.511566	2289.957031	63.138302	263.638123	2245.457520	682.286438	72.954506	2245.049316	615.456421	73.187218	2292.248047	634.743347	78.226486	2312.509277	472.123444	79.232849	2190.683838	387.922699	74.894310	2140.179688	346.935333	91.130951	2185.500977	323.639923	90.977592	2023.487549	220.500946	133.729279	1993.823975	242.937683	178.849899	2104.858643	100.872482	154.619278	2187.292957	814.681473	306.609424	2186.209505	806.090470	159.009599	
536	2.675000	2158.700439	1254.461304	234.491119	2116.457031	1070.740356	232.629196	2286.122559	1208.700317	229.881317	2324.747070	1074.906128	223.249969	2131.548584	1184.114868	331.103546	2257.377686	863.185486	128.565948	2258.298584	874.543335	330.119934	2095.389893	907.357239	231.888336	2242.165527	668.832153	361.253296	2208.306152	611.365051	359.705292	2258.576660	607.237061	343.545532	2241.113525	473.017365	316.865875	2185.312500	345.334290	341.955170	2159.199951	285.249542	332.021454	2209.089355	284.760559	326.858643	2153.967041	91.050056	293.492371	2103.559082	83.522552	244.353134	2290.091553	63.088955	263.683411	2253.304932	683.936340	72.768646	2253.661377	617.132751	72.780350	2300.605225	636.948853	78.194633	2323.024902	474.636810	79.155434	2202.461426	388.169617	75.144554	2152.844971	346.117340	91.508644	2198.594727	323.730042	91.060104	2039.067627	216.960678	134.089920	2008.921509	238.391541	179.479782	2124.093750	99.939720	154.149750	2193.144177	815.037443	306.708824	2192.469783	806.719844	159.106471	
